<?xml version="1.0" standalone="no"?><!DOCTYPE svg PUBLIC "-//W3C//DTD SVG 1.1//EN" "http://www.w3.org/Graphics/SVG/1.1/DTD/svg11.dtd"><svg t="1638150264412" class="icon" viewBox="0 0 1024 1024" version="1.1" xmlns="http://www.w3.org/2000/svg" p-id="3957" xmlns:xlink="http://www.w3.org/1999/xlink" width="200" height="200"><defs><style type="text/css"></style></defs><path d="M256 768h640v128H256z" fill="#cdcdcd" p-id="3958"></path><path d="M896 928H256a32 32 0 0 1-32-32v-128a32 32 0 0 1 32-32h640a32 32 0 0 1 32 32v128a32 32 0 0 1-32 32zM288 864h576v-64H288z" fill="#cdcdcd" p-id="3959"></path><path d="M128 448h512v128H128z" fill="#cdcdcd" p-id="3960"></path><path d="M640 608H128a32 32 0 0 1-32-32v-128a32 32 0 0 1 32-32h512a32 32 0 0 1 32 32v128a32 32 0 0 1-32 32zM160 544h448v-64H160z" fill="#cdcdcd" p-id="3961"></path><path d="M512 128h384v128H512z" fill="#cdcdcd" p-id="3962"></path><path d="M896 288H512a32 32 0 0 1-32-32V128a32 32 0 0 1 32-32h384a32 32 0 0 1 32 32v128a32 32 0 0 1-32 32zM544 224h320V160H544z" fill="#cdcdcd" p-id="3963"></path></svg>