<?xml version="1.0" standalone="no"?><!DOCTYPE svg PUBLIC "-//W3C//DTD SVG 1.1//EN" "http://www.w3.org/Graphics/SVG/1.1/DTD/svg11.dtd"><svg t="1638150239300" class="icon" viewBox="0 0 1024 1024" version="1.1" xmlns="http://www.w3.org/2000/svg" p-id="3650" xmlns:xlink="http://www.w3.org/1999/xlink" width="200" height="200"><defs><style type="text/css"></style></defs><path d="M401 198.24v303H198v-303h203m43-86H155c-23.75 0-43 19.25-43 43v389c0 23.75 19.25 43 43 43h289c23.75 0 43-19.25 43-43v-389c0-23.75-19.25-43-43-43zM399.03 723.24v102.53h-201V723.24h201m43-86h-287c-23.75 0-43 19.25-43 43v188.53c0 23.75 19.25 43 43 43h287c23.75 0 43-19.25 43-43V680.24c0-23.75-19.25-43-43-43zM826 522.76v303H623v-303h203m43-86H580c-23.75 0-43 19.25-43 43v389c0 23.75 19.25 43 43 43h289c23.75 0 43-19.25 43-43v-389c0-23.75-19.25-43-43-43zM825 198.24v102.53H624V198.24h201m43-86H581c-23.75 0-43 19.25-43 43v188.53c0 23.75 19.25 43 43 43h287c23.75 0 43-19.25 43-43V155.24c0-23.75-19.25-43-43-43z" fill="#cdcdcd" p-id="3651"></path></svg>