<?xml version="1.0" standalone="no"?><!DOCTYPE svg PUBLIC "-//W3C//DTD SVG 1.1//EN" "http://www.w3.org/Graphics/SVG/1.1/DTD/svg11.dtd"><svg t="1638160113114" class="icon" viewBox="0 0 1024 1024" version="1.1" xmlns="http://www.w3.org/2000/svg" p-id="4751" xmlns:xlink="http://www.w3.org/1999/xlink" width="200" height="200"><defs><style type="text/css"></style></defs><path d="M512.5 241.6l53.3 137.3c15.3 39.4 52.5 66.3 94.8 68.6l146.8 7.9-113.8 91.8c-33.1 26.7-47.3 70.4-36.4 111.4L695.1 800l-124.2-79.9c-17.5-11.2-37.7-17.2-58.4-17.2-20.8 0-41 5.9-58.4 17.2L329.8 800l37.9-141.4c11-41-3.3-84.7-36.4-111.4l-113.8-91.8 146.8-7.9c42.3-2.3 79.5-29.2 94.8-68.6l53.4-137.3m0-122.7c-14.9 0-29.7 8.2-36.1 24.6l-81.6 210.4c-5.5 14.1-18.8 23.8-34 24.6l-226.6 12.1c-35.4 1.9-49.8 46.1-22.3 68.3L288 601c11.8 9.6 16.9 25.1 13 39.7l-58.4 217.9c-7 26.2 13.9 48.5 37.5 48.5 7 0 14.2-1.9 21-6.3l190.5-122.5c6.4-4.1 13.7-6.2 21-6.2 7.3 0 14.6 2.1 21 6.2L724 900.8c6.8 4.4 14 6.3 21 6.3 23.6 0 44.5-22.2 37.5-48.5L724 640.7c-3.9-14.6 1.2-30.2 13-39.7l176.1-142.1c27.5-22.2 13-66.4-22.3-68.3l-226.6-12.1c-15.2-0.8-28.5-10.4-34-24.6l-81.6-210.4c-6.4-16.4-21.2-24.6-36.1-24.6z" p-id="4752" fill="#cdcdcd"></path></svg>