<?xml version="1.0" standalone="no"?><!DOCTYPE svg PUBLIC "-//W3C//DTD SVG 1.1//EN" "http://www.w3.org/Graphics/SVG/1.1/DTD/svg11.dtd"><svg t="1638150214463" class="icon" viewBox="0 0 1024 1024" version="1.1" xmlns="http://www.w3.org/2000/svg" p-id="3475" xmlns:xlink="http://www.w3.org/1999/xlink" width="200" height="200"><defs><style type="text/css"></style></defs><path d="M242.191059 210.823529H210.823529v602.352942h602.352942V210.823529H242.191059zM150.588235 0h722.82353c83.169882 0 150.588235 67.418353 150.588235 150.588235v722.82353c0 83.169882-67.418353 150.588235-150.588235 150.588235H150.588235C67.418353 1024 0 956.581647 0 873.411765V150.588235C0 67.418353 67.418353 0 150.588235 0z m336.323765 681.411765c0 12.559059-6.279529 18.823529-18.823529 18.823529H292.382118c-12.559059 0-18.823529-6.264471-18.82353-18.823529V292.397176c0-12.559059 6.264471-18.823529 18.82353-18.823529h175.676235c12.559059 0 18.823529 6.264471 18.823529 18.823529V681.411765z m263.529412-150.588236c0 12.544-6.279529 18.823529-18.82353 18.82353H555.911529c-12.559059 0-18.823529-6.279529-18.823529-18.82353V292.397176c0-12.559059 6.264471-18.823529 18.823529-18.823529h175.676236c12.559059 0 18.823529 6.264471 18.823529 18.823529V530.823529z" fill="#cdcdcd" p-id="3476"></path></svg>